<?xml version="1.0" encoding="iso-8859-1"?>
<!-- Uploaded to: SVG Repo, www.svgrepo.com, Generator: SVG Repo Mixer Tools -->
<svg fill="#000000" height="800px" width="800px" version="1.1" id="Layer_1" xmlns="http://www.w3.org/2000/svg" xmlns:xlink="http://www.w3.org/1999/xlink" 
	 viewBox="0 0 512 512" xml:space="preserve">
<g>
	<g>
		<g>
			<path d="M490.667,21.333H21.333C9.551,21.333,0,30.885,0,42.667v384C0,438.449,9.551,448,21.333,448h21.333v21.333
				c0,11.782,9.551,21.333,21.333,21.333c11.782,0,21.333-9.551,21.333-21.333V448h341.333v21.333
				c0,11.782,9.551,21.333,21.333,21.333c11.782,0,21.333-9.551,21.333-21.333V448h21.333c11.782,0,21.333-9.551,21.333-21.333v-384
				C512,30.885,502.449,21.333,490.667,21.333z M469.333,405.333H42.667V64h426.667V405.333z"/>
			<path d="M405.333,341.333c11.776,0,21.333-9.557,21.333-21.333s-9.557-21.333-21.333-21.333S384,308.224,384,320
				S393.557,341.333,405.333,341.333z"/>
			<path d="M405.333,192c11.776,0,21.333-9.557,21.333-21.333s-9.557-21.333-21.333-21.333S384,158.891,384,170.667
				S393.557,192,405.333,192z"/>
			<path d="M85.333,384h256c11.782,0,21.333-9.551,21.333-21.333v-256c0-11.782-9.551-21.333-21.333-21.333h-256
				C73.551,85.333,64,94.885,64,106.667v256C64,374.449,73.551,384,85.333,384z M106.667,256h42.667v85.333h-42.667V256z
				 M234.667,256v85.333H192V256H234.667z M192,213.333V128h42.667v85.333H192z M277.333,341.333V256H320v85.333H277.333z
				 M320,213.333h-42.667V128H320V213.333z M149.333,128v85.333h-42.667V128H149.333z"/>
		</g>
	</g>
</g>
</svg>